<svg id="Layer_1" data-name="Layer 1" xmlns="http://www.w3.org/2000/svg" viewBox="0 0 300 300"><defs><style>.cls-1{fill:#fff;}</style></defs><title>Untitled-2</title><path class="cls-1" d="M265.53,120.16q-51.16-46.9-102.22-93.95c-5.27-4.84-10.55-9.67-15.95-14.61-1.11,1-2.05,1.77-3,2.59Q86.44,65.7,28.46,117.17a5.74,5.74,0,0,0-2,4.83q.06,76.44,0,152.88v3.29H268.05v-3.63q0-74.27.06-148.51A7.16,7.16,0,0,0,265.53,120.16ZM244.3,254.89H50.12c-.07-1.09-.18-2.1-.18-3.11q0-59.57.07-119.14a6.76,6.76,0,0,1,1.89-4.51Q98.57,86.49,145.37,45c.47-.41.95-.8,1.73-1.46,10.1,9.27,20.05,18.39,30,27.53q32.61,30,65.14,60a6.82,6.82,0,0,1,2.11,4.41q.16,58.32.08,116.65C244.42,253,244.35,253.84,244.3,254.89Z"/><path class="cls-1" d="M155.46,169.45h36.75V133H155.46Z"/><path class="cls-1" d="M155.37,222.87h36.81v-36H155.37Z"/><path class="cls-1" d="M138.38,133H102.32v36.53h36.06Z"/><path class="cls-1" d="M102.14,222.85h36.27V186.92H102.14Z"/></svg>