<svg id="Layer_1" data-name="Layer 1" xmlns="http://www.w3.org/2000/svg" viewBox="0 0 300 300"><title>Untitled-2</title><path d="M257,26.7a52.8,52.8,0,0,1-24.89-4.77c-4.32-2-9.18-3.86-13.82-3.94-23.28-.39-46.56-.3-69.84,0a22.24,22.24,0,0,0-10.42,3.2C114,35.42,90,49.9,66,64.32a33.58,33.58,0,0,0-3.46,2.31,16.27,16.27,0,0,0-.22,25.64c.69.55,1.36,1.13,2.53,2.1a9,9,0,0,0-1.74,1.09c-20.58,22.05-23,52.08-5.28,75.43,6.68,8.8,15.12,16.27,22.75,24.34l2.73,2.91c-7.92,3-15.49,5.43-22.77,8.59a47.9,47.9,0,0,1-22.23,4c-6.2-.34-12.44-.07-18.8-.07v67.39h3.56c8.34,0,16.7.42,25-.11a57.05,57.05,0,0,1,29.86,5.9c4.76,2.39,9.83,3.05,15.15,3,19.8-.13,39.61-.26,59.42.05a39.13,39.13,0,0,0,21.95-6c22.27-13.7,44.79-27,67.25-40.4,4.66-2.78,8.39-6.26,9.41-11.81,1.19-6.44-.55-12-5.8-16.09s-10.86-4.7-17-2.06c-8.55,3.7-17.15,7.32-25.73,11a9,9,0,0,1,2.17-3.15c13.27-13.76,26.65-27.4,39.8-41.27,16.45-17.37,21.08-37.66,13.34-60.27-2.27-6.64-6.48-12.61-10.2-19.63,4.55-1,9.48-2.7,14.51-3.1,7-.55,14.12-.14,21.19-.14h4.82V26.61C277.6,26.61,267.3,26.29,257,26.7ZM45.8,268.81H28.28v-49H45.8Zm184.64-49.39c2.41-1,5.93-1.35,8.2-.35,5.52,2.45,5.29,9.45-.17,12.79-11.16,6.82-22.4,13.51-33.6,20.25-12.9,7.76-25.72,15.64-38.75,23.15a21,21,0,0,1-9.79,2.75c-21.55.24-43.1.17-64.64.06-2.61,0-5.21-.86-7.79-1.41a18.89,18.89,0,0,1-2.58-1c-8.4-3.11-16.33-8-26-6.3-.1-1.41-.21-2.3-.21-3.19,0-14.94.06-29.89-.08-44.83,0-2.45.83-3.42,3-4.19,7.74-2.75,15.47-5.53,23.08-8.61,7.13-2.88,14.4-1.6,21.62-1.15,10.75.68,21.47,1.69,32.21,2.51,5.78.44,9.29,3.58,9.42,8.59s-2.94,8-8.75,8.89c-11.87,1.92-23.73,3.87-36.2,5.91.47,3.05.88,5.75,1.28,8.33.5.15.76.34.93.27,6.31-2.4,11.68.52,17.18,2.93s10.88,4.56,16.27,6.95a23.6,23.6,0,0,0,19.81,0C180,240.85,205.17,230,230.44,219.42Zm9.34-50.36c-19.29,20.63-39.19,40.71-58.86,61a9.89,9.89,0,0,1-3.14,2.06c-8.9,3.9-17.84,7.68-26.73,11.59a14.41,14.41,0,0,1-12.4,0c-4-1.81-8-3.5-12-5.25,0-.21.08-.43.13-.64,4.1-.68,8.21-1.31,12.3-2a16.91,16.91,0,0,0,14.16-16.47c.15-8.61-5.47-16.33-13.72-17.61-7.64-1.18-15.43-1.47-23.15-2.1-6.35-.52-12.7-.88-19-1.48a5.7,5.7,0,0,1-3.21-1.65c-9.19-9.47-18.7-18.67-27.36-28.62-12.38-14.22-15-30.9-8.6-48.39,6-16.58,18.15-27,35.91-29.48,15.85-2.18,29.26,3.36,40.57,14.61,6.4,6.36,13.25,12.27,19.89,18.39l-.78,1.15c.67-.57,1.39-1.09,2-1.71,3.81-3.89,8.09-7.45,11.25-11.81,4.4-6,9.79-7.16,16.74-6.29C194,105.59,204.27,106,214.53,107c7.22.69,13.7-1.76,20.13-4.34,2.42-1,3.84-.7,5.6,1.32C256.87,123,257.05,150.59,239.78,169.06ZM162,100.59c.36.26.69.55,1.37,1.09-1.66,1.75-3.24,3.38-4.79,5s-2.93,3.22-4.68,5.14C141.43,98.67,130,84.71,110,81.56c2-1,2.87-1.5,3.83-1.92,15.48-6.72,31-13.47,46.5-20a7.63,7.63,0,0,1,5.1,0c5.27,2,10.41,4.32,15.6,6.53,0,.22-.1.43-.16.65-3.75.66-7.49,1.37-11.26,2C161.82,70,156.79,74.42,154.76,82,153,88.77,156,96.17,162,100.59Zm87.88-13.06c-8.17,2.91-16.31,5.91-24.37,9.1-6.85,2.72-13.76.92-20.62.54-10.86-.61-21.7-1.67-32.55-2.51-5.24-.4-8.63-3.31-9-7.87-.41-4.81,2.39-8.27,7.89-9.23,11.74-2,23.51-3.91,35.27-5.85.44-.07.88-.19,1.79-.38-.48-3-.91-5.72-1.43-9-7.21,3.57-13-.3-18.94-2.84-7.56-3.21-15.07-6.52-22.69-9.57a6.87,6.87,0,0,0-4.79,0c-27.64,11.83-55.22,23.8-82.83,35.68A14.34,14.34,0,0,1,72,86.84a6.67,6.67,0,0,1-6.43-5,7.1,7.1,0,0,1,2.27-8.15,21.37,21.37,0,0,1,2.9-1.91c23.41-14.05,46.77-28.2,70.32-42a23.5,23.5,0,0,1,11.09-3.09c20.85-.29,41.7-.22,62.55-.05a34.34,34.34,0,0,1,10.08,1.93c4.61,1.5,8.93,3.92,13.58,5.25,4.47,1.28,9.2,1.68,14.24,2.54v4.75c0,14.13-.05,28.26,0,42.39C252.65,85.7,252,86.77,249.91,87.53ZM279.5,84.7H261.75V35.89H279.5Z"/><path d="M203.14,153.67a13.13,13.13,0,0,0-7.23-12.15c-1.77-1-3.61-1.88-5.42-2.82,5.11-8.72,4.88-16.84-.44-21.92-4.55-4.35-12-5.14-16.86-1.21a15.64,15.64,0,0,0-5.14,7.11,16.33,16.33,0,0,0,3.17,15.92c-1.41.73-2.4,1.33-3.46,1.78-6.79,2.91-9.78,8.06-9.42,15.38a56.42,56.42,0,0,1-.06,10.4c-.75,5.33,1.08,8.58,6.28,10,2.4.65,3,2.35,2.89,4.74-.18,4,0,8.1,0,12.15v12.89h26.28c.22-.39.42-.58.42-.78.05-6.83.49-13.68,0-20.47-.4-5.38,1-8.8,6.4-10.24,2-.54,2.79-1.87,2.72-4.1C203,164.79,203.15,159.23,203.14,153.67ZM180.66,122c2.84-.06,4.59,2.12,4.56,5.69,0,3.31-2.09,6-4.57,5.92s-4.56-2.91-4.51-6.1S177.94,122.1,180.66,122Zm11,46.83c-5.45,1.52-7.07,5-6.51,10.53.58,5.81.13,11.73.13,17.79h-9.09v-4.14c0-4.63-.38-9.31.09-13.89.55-5.31-.84-8.87-6.31-10.28-2.1-.54-2.76-2-2.65-4.19.18-3.46.11-6.94,0-10.42a5.08,5.08,0,0,1,3.19-5.25c.42-.19.83-.41,1.24-.61,10.08-5.1,10.14-5.19,19.58.87a7.26,7.26,0,0,1,2.8,4.69c.43,3.54,0,7.18.21,10.76C194.44,167,193.65,168.3,191.61,168.87Z"/><path d="M131.3,125.53H104.36v18H86.68v26.94h18V188h26.74V170.2h17.64V143.25H131.3Zm8.89,26.64v9.12H122.54v17.76h-9V161.41H95.65v-9h17.62V134.48h9.12v17.69Z"/></svg>