<svg id="Layer_1" data-name="Layer 1" xmlns="http://www.w3.org/2000/svg" viewBox="0 0 300 300"><title>Untitled-2</title><path d="M165.74,66.22H126.87v-18h-9v18h-4c-12.21,0-24.41-.06-36.62,0C69.35,66.29,63.74,72,63.69,80c0,5.42,0,10.85,0,16.27v5.88h9.06V84.53H172V247.28H72.65V229.64h-9c0,6.7.34,13-.07,19.34-.75,11.65,7,17,16.66,16.86,22.25-.39,44.52-.13,66.78-.13,6.67,0,13.33.09,20,0,8.33-.15,14-5.88,14.08-14.17,0-1.81,0-3.61,0-5.42q0-82.21,0-164.42C181.13,71.47,175.87,66.22,165.74,66.22Z"/><path d="M67.75,186.71c1.07,5.74,1.85,6.44,7.82,6.44h64.87a55,55,0,0,0-3.94,5.38c-1.63,2.91-3.91,3.66-7.2,3.63-17.51-.18-35-.08-52.53-.08h-4V211a4.68,4.68,0,0,0,1.1.34c20.45,0,40.89.07,61.34-.05a6.32,6.32,0,0,0,4.34-2.06c4.58-5.73,9-11.61,13.25-17.58,2.61-3.66.68-7.31-3.82-7.58-2.23-.13-4.48,0-7.28,0,4.17-15.37,8.17-30.12,12.3-45.32H68c-1.45-7.66-2.86-15-4.19-22.29-.44-2.45-1.5-4.58-4.12-4.63-9.11-.17-18.23-.07-27.52-.07v8.91h23.2C59.53,142.84,63.66,164.77,67.75,186.71Z"/><path d="M275.32,79.82q-26.26-.12-52.53,0c-6.33,0-9.9,3.57-9.93,9.88q-.11,26.25,0,52.52c0,6.67,3.64,10.08,10.41,10.13,4.29,0,8.6.21,12.87-.06,2.92-.19,4.47.73,5.63,3.44,2,4.74,4.51,9.3,7.17,14.7,2.87-5.7,5.48-10.67,7.87-15.75a3.57,3.57,0,0,1,3.87-2.36c4.85.12,9.71.09,14.57,0,6.21-.08,9.67-3.51,9.68-9.65q.06-26.59,0-53.2C284.92,83.24,281.63,79.85,275.32,79.82Zm-28.61,31.61a31.32,31.32,0,0,0,5,.23A11,11,0,0,1,262,119.59c1.42,4.68-.23,10.1-4.46,12.44-2.74,1.53-5,2.85-4,6.57h-8.93c1.11-4-1.87-5.13-4.55-6.81-3-1.87-4.42-5-4.5-9.09,3.5.71,6.9-1.34,10.2,1.78,1.18,1.12,4.25.39,6.43.2.48-.05,1.32-1.51,1.16-2.06a3.16,3.16,0,0,0-2-1.91c-1.76-.3-3.6,0-5.4-.19a11.19,11.19,0,0,1-10.11-8.61c-1.17-4.6.62-9.81,4.76-12,2.7-1.44,4.86-2.7,3.81-6.26h9c.09,1.48.16,2.8.25,4.33,5,1.74,8.34,5,8.94,11.2-3.57-.67-6.91,1.33-10.3-1.56-1.31-1.11-4.29-.39-6.48-.21-.44,0-1.23,1.54-1,2.12A3.19,3.19,0,0,0,246.71,111.43Z"/><path d="M266.94,220.29c-4.48-.06-9,0-14,0,11-5,15.57-12.29,13.82-21.39a18.06,18.06,0,1,0-33.46,12.2c2.48,4.49,6.43,7.18,11.18,9-4,.22-7.8.22-11.64.23-10.15,0-15.44,5.24-15.47,15.42,0,11.75,0,23.5,0,35.25,0,1.1.1,2.2.16,3.37h63.13c0-13.95.21-27.62-.08-41.27C280.42,225.65,274.4,220.39,266.94,220.29Z"/><path d="M95.57,51.22c-3.26-5.42-5.28-10.93-4.63-16.77S93.22,23.17,94.54,17l-6.49-4.15c-8.51,12.77-8.33,33.76.27,43Z"/><path d="M149.44,51.37c1.84,1.18,3.71,2.4,5.61,3.58.56.35,1.17.61,1.74.91,8.3-12.32,8.2-32.9-.24-42.84l-7.23,4.58C155.55,31.34,155.56,36.17,149.44,51.37Z"/><path d="M45.39,175.19h-31v8.57h31Z"/><path d="M27.65,201.82H58.8v-8.49H27.65Z"/><path d="M110.8,41.65c-2.66-5-2.32-9.64,0-14.41l-7.19-4.6c-5,6.64-5,16.81,0,23.65Z"/><path d="M134.32,41.84l7,4.44c4.8-6.7,4.91-15.89.12-23.72-1.33.84-2.56,1.6-3.78,2.39s-2.37,1.57-3.47,2.3C136.41,33.46,136.41,34.28,134.32,41.84Z"/><path d="M49.93,165.91v-8.85H32.14v8.85H49.93Z"/><path d="M84.06,227.12a6.64,6.64,0,0,0,6.56,6.72,6.79,6.79,0,0,0,6.92-6.76,7,7,0,0,0-6.62-6.78A6.8,6.8,0,0,0,84.06,227.12Z"/><path d="M115.67,227.21a6.74,6.74,0,1,0,13.48-.23,6.74,6.74,0,1,0-13.48.23Z"/><path d="M122.51,39A4.55,4.55,0,1,0,118,34.55,4.62,4.62,0,0,0,122.51,39Z"/></svg>