<svg id="Layer_1" data-name="Layer 1" xmlns="http://www.w3.org/2000/svg" viewBox="0 0 300 300"><title>Untitled-2</title><path d="M266.64,42.32a34.35,34.35,0,0,0-.77-7.78c-2-8.37-9.42-16.85-23.55-16.81-61.57.17-123.14.07-184.71.08-1.64,0-3.28.11-4.91.26A21.45,21.45,0,0,0,33.25,39.15q-.07,89.05,0,178.11c0,12.76,9.75,22.18,22.57,22.19q31,0,62,0h4v31c-5,0-9.93-.05-14.82,0-4.2.05-6.65,2.15-6.67,5.56,0,3.56,2.24,5.46,6.57,5.47h43.64c14.21,0,28.43,0,42.65,0,2.67,0,4.69-.7,5.74-3.35,1.55-4-1-7.57-5.62-7.69-5.09-.13-10.19,0-15.42,0v-31H182c20.13,0,40.26-.39,60.37.14,12.28.32,24.49-8.82,24.42-24.4C266.5,157.57,266.68,99.94,266.64,42.32ZM166.41,270.19H133.33V239.58h33.08Zm42-55c-.14,1.07-1.83,1.93-2.81,2.89-1-1-2.4-1.93-2.86-3.17s-.12-3-.12-4.51h0c0-1.41-.4-3,.12-4.17a4.6,4.6,0,0,1,3-2.54c.84-.09,2.57,1.47,2.68,2.43A36.7,36.7,0,0,1,208.4,215.15Zm16.52.7c-.09.82-1.76,2-2.68,2a3.62,3.62,0,0,1-2.62-2.13,26.29,26.29,0,0,1-.66-5.44l.16,0c.07-1.41-.2-3,.32-4.18s1.79-2.42,2.78-2.46,2.82,1.33,2.9,2.21A51.43,51.43,0,0,1,224.92,215.85Zm17-.69c-.43,1.15-1.85,2.64-2.86,2.67s-2.65-1.59-2.78-2.64a37.7,37.7,0,0,1,0-9.07c.12-1,1.81-2.55,2.64-2.47a4.64,4.64,0,0,1,3,2.5c.53,1.17.12,2.76.12,4.17h.18C242.15,212,242.43,213.71,241.89,215.16Zm13.84-30.58H175.2v16.8c0,2.94,0,5.89,0,8.84,0,2.29-1.18,3.4-3.43,3.45-1.09,0-2.19.07-3.28,0-3.95-.25-6.88,0-9.43,4.4-4.18,7.18-15.9,5.94-19.51-1.63-1.1-2.32-2.35-3-4.69-2.79-2.07.18-4.16,0-6.23,0-2.92.09-4.11-1.27-4.08-4.17.08-8.17,0-16.34,0-24.85H44.07v-3.82q0-69.23,0-138.46c0-9.24,4.39-13.59,13.66-13.6H242.09c9.22,0,13.64,4.42,13.64,13.65q0,69.24,0,138.46Z"/><path d="M139.63,151.84c2.86-.52,4-2.64,4.71-5.24q9.12-33.75,18.33-67.5c1.46-5.36,2.9-10.72,4.15-15.35.12-3.51-1.09-5.37-3.67-6.3-3.74-1.36-6.42.29-7.64,4.77Q147.25,92.66,139,123.1c-1.88,6.94-3.84,13.86-5.67,20.82C132,149,135,152.7,139.63,151.84Z"/><path d="M175.94,75a15.74,15.74,0,0,0-1.18-1.13c-2.7-2.24-5.92-2.08-8.18.37s-2,5.39.44,7.83c4.85,4.88,9.67,9.78,14.59,14.58,2.56,2.49,5.31,4.79,8.08,7.27-1.37,1.47-2.08,2.27-2.84,3q-9.6,9.61-19.2,19.22c-3.13,3.15-3.39,6.24-.83,8.85s5.7,2.32,8.86-.81q12.44-12.34,24.8-24.75c3.38-3.4,3.35-6.47,0-9.88Q188.21,87.3,175.94,75Z"/><path d="M132.42,126.53c-7.26-7.24-14.59-14.42-22.32-22,1.47-1.32,2.49-2.16,3.41-3.08,6.42-6.4,12.86-12.78,19.22-19.24,2.44-2.49,2.5-5.63.42-7.91A5.41,5.41,0,0,0,125,74q-13.43,13.22-26.6,26.68a5.28,5.28,0,0,0-.33,7.42q13.58,13.77,27.37,27.31c2.27,2.23,5.43,1.83,7.58-.49C135.4,132.33,135.26,129.36,132.42,126.53Z"/><path d="M130.84,207.58c1.25,0,2.23-.09,3.2,0,2.68.29,4.49-.22,5.76-3.17,1.43-3.32,4.55-5.16,8.3-5.57,6.4-.72,10.06,1.59,13.46,8.53H169V184.69H130.84Z"/><path d="M150.14,204.87a5.63,5.63,0,0,0-6,5.84c-.05,3.53,2.09,5.84,5.49,5.92,3.64.09,6-2.15,6.06-5.73S153.49,205,150.14,204.87Z"/></svg>