<svg id="Layer_1" data-name="Layer 1" xmlns="http://www.w3.org/2000/svg" viewBox="0 0 300 300"><title>Untitled-2</title><path d="M251.1,49.19c-.49-.88-.88-1.81-1.53-3.15h4.17c8.76,0,17.51,0,26.27,0,3.73,0,5.51-2,4.79-5.14s-3.11-3-5.52-3q-54.46,0-108.94,0c-2.24,0-3.45-.46-4.4-2.78s-2.51-5.13-4.54-6c-6.55-2.73-7.75-7.48-6.94-13.73.29-2.25-1.27-3.7-3.65-3.82s-4.06,1-4.24,3.59a66.62,66.62,0,0,0-.17,7.34c.07,2-.77,2.8-2.44,3.95-3.15,2.19-6.47,4.77-8.35,8-1.66,2.84-3.24,3.44-6.13,3.44q-54.12-.12-108.24,0c-3.54,0-5.39,1.46-5.2,4.18.21,3.13,2.29,4,5.09,4,3.85,0,7.71,0,11.56,0H51.62c-.81,1.53-1.32,2.53-1.87,3.52C39.16,68.48,28.5,87.37,18.07,106.38a15.7,15.7,0,0,0-1.78,7.9c1.1,21.58,19.26,39,41,39.64,22,.63,41.17-15.7,43.82-37.21a17.38,17.38,0,0,0-2.18-11.35C88.85,87.76,79,70,69.13,52.3c-1.06-1.9-2.06-3.82-3.27-6.08h68.07c1.68,4.79,4.33,9,9.18,10.86,3,1.14,3.31,2.85,3.3,5.51q-.1,39.75,0,79.51c0,11.2,0,22.41-.07,33.62,0,1.33-.46,3.25-1.4,3.88-3.83,2.6-7.73,5.19-12.87,4.27-2.15-.38-4.42-.06-6.64-.06H106.31c-1.71-7.7-1.7-7.73-9.38-9.23-9.27-1.81-18.55-3.56-27.83-5.31-3.86-.73-5.76.77-5.86,4.68q-.87,33.06-1.7,66.12c-.09,3.65,1.32,5.1,5,5.13,6.53.06,13.07,0,19.61,0a4.86,4.86,0,0,0,5-3c.41-.89,1-1.7,1.49-2.55l-.58,1c4.93,4.45,9.94,8.83,14.79,13.38,9.64,9,19.48,17.78,31.63,23.43,5.42,2.53,11,3.63,17,2.34a32.09,32.09,0,0,1,6.43-.94c5.65-.06,10.56-1.38,14.06-6.31.62-.87,2.32-1.33,3.54-1.38a12.35,12.35,0,0,0,10.27-5.7,6.2,6.2,0,0,1,3.08-2.26c5.22-1.48,8.86-4.79,9.59-10,.56-4,2.75-5.48,6.38-6.69,1.29,5.62,5.7,5.38,10.17,5.26,4.9-.12,9.81,0,14.71,0s5.94-1.38,5.82-6.21q-.81-31.83-1.64-63.66c-.16-5.86-1.5-7-7.3-6-11.15,1.86-22.28,3.88-33.44,5.69-3.41.55-6.1,1.61-6.47,5.77-11.64-5.3-23.37-9.3-36.15-10.16v-22.4q0-46.41,0-92.81c0-2.18.27-3.58,2.71-4.43a14.58,14.58,0,0,0,8.89-8.87c.85-2.22,2-2.63,4.13-2.62,20.55.07,41.1,0,61.65,0,1,0,2,.13,3.28.23-.78,1.48-1.34,2.6-1.95,3.69q-16,28.56-31.87,57.13a11.53,11.53,0,0,0-1.64,5.55,42.72,42.72,0,0,0,84.75,6.12,19.65,19.65,0,0,0-2.2-14.07C271.65,86.33,261.45,67.72,251.1,49.19ZM90.29,106.82H27L58.68,50.31C69.32,69.32,79.69,87.87,90.29,106.82Zm109.36,82.67,30.16-5.14c.5,19.86,1,39.26,1.5,59.21-4.73,0-9.34.05-13.94-.07-.59,0-1.39-.79-1.71-1.41-8.36-16.13-14.94-32.84-16.24-51.22A7.87,7.87,0,0,1,199.65,189.49Zm-39.93,26.07q16.46,15.19,33.23,30c2.77,2.43,2.48,4.74,1.06,7.36s-3.87,2.85-5.91.66q-7.29-7.78-14.54-15.62c-.55-.6-1.12-1.19-1.68-1.78-1.8-1.85-3.87-2.37-5.87-.56s-1.85,4.17,0,6.17c4.88,5.33,9.83,10.59,14.75,15.89.79.85,1.55,1.72,2.3,2.55-2.15,3.6-5.62,3.92-8.55.8-4.95-5.26-9.85-10.58-14.77-15.88-.55-.6-1.12-1.19-1.68-1.77-1.88-2-4-2.63-6.11-.56s-1.64,4.18.21,6.17q7.38,7.94,14.77,15.88c.78.84,1.52,1.72,2.4,2.73-3.61,4-8.49,4.11-11.77.63q-7.55-8-15-16.12c-2.74-2.94-4.7-3.41-6.84-1.57s-1.89,4.16.93,7.21q6.51,7,13.07,14l-.38.83c-2.61-.89-5.49-1.35-7.79-2.76-6-3.71-12.32-7.27-17.61-11.92-8.92-7.83-17.12-16.47-25.68-24.72a3.92,3.92,0,0,1-1.06-4.88,121.81,121.81,0,0,0,7.56-32.93c.23-2.56,1-3.63,3.78-3.52,6,.23,12,.07,18.71.07-1.49,1.78-2.52,3-3.52,4.21a36.08,36.08,0,0,0-8,17.61c-.49,3.24.61,5.12,3.67,6.12,9.49,3.11,18.36,3.46,25.43-5.25a4.26,4.26,0,0,1,2.44-.94c1.25-.22,2.76.15,3.78-.42C154.79,211.22,157.08,213.12,159.72,215.56Zm51-108.63L242.37,50.3c10.73,19.17,21.1,37.72,31.68,56.63Z"/></svg>