<svg id="Layer_1" data-name="Layer 1" xmlns="http://www.w3.org/2000/svg" viewBox="0 0 300 300"><title>Untitled-2</title><path d="M283,136.89c0-.83-1.55-2.14-2.56-2.34q-13.16-2.7-26.38-5c-2.08-.36-3-1.19-3.44-3.23a98.34,98.34,0,0,0-14.39-35c-1.33-2-1.23-3.36.13-5.28,5.55-7.89,10.93-15.9,16-23.39L233.09,43.4c-7.66,5.19-15.7,10.52-23.58,16.08-2,1.41-3.3,1.28-5.26,0-8.93-5.83-18.44-10.83-29-12.61-7.44-1.27-9.84-5-10.58-11.82-.79-7.41-2.69-14.71-4.13-22.17-8.6,0-16.84-.08-25.09.11-.83,0-2.15,1.54-2.36,2.54-1.78,8.52-3.5,17.05-4.89,25.64-.45,2.73-1.65,3.7-4.15,4.2A97.11,97.11,0,0,0,90.3,59.21c-2.36,1.53-3.85,1.57-6.14-.05-7.75-5.51-15.69-10.76-23.43-16C54.28,49.62,48.07,55.87,41.67,62.3c.49.77,1.09,1.76,1.74,2.71,4.9,7.2,9.78,14.42,14.76,21.57,1,1.41,1.3,2.43.24,4a99.71,99.71,0,0,0-14.95,35.91c-.4,2-1.29,2.68-3.17,3q-13.21,2.35-26.38,5c-1,.2-2.51,1.32-2.52,2-.18,8.44-.12,16.88-.12,25.42,9.85,1.88,19.31,3.81,28.82,5.43,2.33.4,3.1,1.43,3.52,3.49a100.27,100.27,0,0,0,14.68,35.28c1.13,1.72.91,2.81-.18,4.33-3,4.21-5.88,8.54-8.8,12.81l-7.65,11.2,19.18,19.21c7.89-5.36,16-10.8,24-16.37,1.69-1.16,2.87-1.28,4.67-.09,9.61,6.35,20,11.21,31.28,13.47,5.42,1.08,7.5,3.32,8.16,8.69,1,8.25,3,16.38,4.57,24.59h27c1.87-9.66,3.81-19.11,5.44-28.6.42-2.45,1.5-3.28,3.73-3.74a99.25,99.25,0,0,0,34.42-14.15c2.17-1.42,3.57-1.28,5.57.12,7.9,5.53,15.91,10.88,23.69,16.17l19.19-19.12c-5.46-8-10.75-15.91-16.28-23.68-1.49-2.09-1.37-3.52,0-5.59,5.7-8.85,10.71-18.22,12.58-28.56,1.35-7.43,4.72-10.22,12-10.85,7.43-.66,14.74-2.65,22.22-4.08C283.08,153.36,283.16,145.12,283,136.89ZM146.91,219.68c-41.4,0-72.69-33.78-71.27-74.45,1.26-36.27,31.59-68,71.62-68,37.71.12,71.25,29.67,71.15,72.16C218.33,187.19,187.87,219.67,146.91,219.68Z"/><path d="M160.72,146c-2.27-.7-2.94-1.62-2.9-3.87.13-7.18.05-14.36.05-21.54v-10.1c1.62,1.06,2.58,1.63,3.49,2.28,4.93,3.55,7.22,8.49,7.84,14.41.28,2.69,1.74,4.71,4.62,5s5-1.27,6.05-3.89a9.79,9.79,0,0,0,.61-3.77,25,25,0,0,0-16.75-23.48c-4-1.45-6.6-2.77-6-7.78.37-3.43-3.12-6.11-6.52-6A6.32,6.32,0,0,0,145,93.36c-.13,1.6-.17,3.2-.25,4.71-17.64,3.46-27.62,12.33-28.72,25.2a27.6,27.6,0,0,0,4.25,17.85c5.7,8.82,14.77,11.91,24.51,13.81v32.43c-9.73.32-17.58-5.32-20.91-14.71-1.31-3.72-4.58-5.56-8-4.49-3.07,1-4,3.33-3,7.53,3,12.32,13.39,21,28,22.8,3.36.42,4.28,1.51,4.21,4.71a5.83,5.83,0,0,0,6.07,6.34,6.54,6.54,0,0,0,6.68-6.35c.08-1.38,0-2.76,0-4,2.49-.69,4.55-1.16,6.55-1.81,9.38-3.07,15-9.72,16.81-19.15C184.23,162.86,176.51,150.88,160.72,146Zm-15.94-3.34c-8.42.39-16.68-7.43-16.8-15.73-.14-9.11,7.73-17.15,16.8-17Zm13.09,44.58v-29.8c8.58,1.69,12.56,7.37,12.35,17.2C170.07,181.19,165.17,186.35,157.87,187.28Z"/></svg>