<svg id="Layer_1" data-name="Layer 1" xmlns="http://www.w3.org/2000/svg" viewBox="0 0 300 300"><title>Untitled-2</title><path d="M248.21,108.12c-8,6.19-16.41,7.67-25.82,2.9,6.17-8.85,8.1-18.64,9.24-28.69a3.08,3.08,0,0,0-.88,1.3c-8.65,23.35-24.86,39.57-47.33,49.79-19.55,8.88-40.31,11.92-61.59,12.17-13.28.16-26.36-1.84-39.46-3.8-7.25-1.09-14.65-1.26-21.61,1.76-2.22,1-4.1,2.71-6.13,4.1l.49.72c5.67-2.78,8.57-3.28,14.59-2.53,8.74,1.1,12.76,4.76,14.43,13.27A30.43,30.43,0,0,0,92.75,175c-2.87-9.12-2.83-15-.09-18.51,1.73,12.39,6.8,23.21,12,26.17-1.21-5-2.49-10.34-3.76-15.65,2,3.46,3.21,7.12,5,10.53a18.89,18.89,0,0,0,8,8.13c-4.77-7.2-6.39-12.77-4.78-17.12,7.34,15.43,8.93,17.77,12.71,18.84-5.22-8.79-6.67-14.5-4.89-19.12,1.68,3.5,3.1,7.21,5.18,10.52s4.86,6.29,7.33,9.41l.93-.6a34.45,34.45,0,0,1-5.21-17.9c1.58,3.28,2.65,5.94,4.09,8.39s3.26,4.68,4.91,7c-3.21-11-3.89-15.1-2.58-20.51,3.22,10.8,8.77,19.45,18.46,25a34.38,34.38,0,0,1-8.72-22c8.24,14.58,12,18.73,19.71,21.08a36.63,36.63,0,0,1-13.92-21.15c4.07,4.48,8,9.43,12.59,13.7,5.26,4.89,12.8,7.52,17.36,6.86-10.28-4.36-17-11.69-20.11-22.24,6.35,8.63,13.64,15.84,24.93,17.41-9.23-4.41-15.33-11.58-19.08-20.92,8.83,10.72,19.55,18.06,33.62,19.67-11.59-6-18-11.43-19.29-16.6,13.5,10,23.26,13.89,29.82,11.9-16.47-4.42-27-13.4-28.63-24.73,8.46,11.63,18.17,20.59,33.5,19.75-13.29-2-26.79-11.25-29.33-20.33,17,14.93,34.38,20.17,44.52,13.4-20.28-.61-34.21-7.79-36.33-19,11,10.81,23.29,17,39,12.73-14.79,1.95-25.74-4.21-34.1-15.9,6.55,4.83,13.37,9,21.35,11.32,7.44,2.11,20.54,1.26,23-1.25-4.19,0-9.22.67-14-.19a49,49,0,0,1-14-5.16c-5-2.69-8.57-7.38-9.48-10.59,14.38,12.06,30.8,12.4,39.66,7.44-17.29,2.22-30.56-1.6-35.49-9.92,5.26,1.72,10.76,3.84,16.43,5.26a32.3,32.3,0,0,0,17.54-.52c6.3-1.94,12.08-5.83,14-9.56-13.79,8.2-32.41,7-40.15-2.52,4.44.94,9,2.46,13.65,2.74a54.39,54.39,0,0,0,14-1.17c5.35-1.08,9.55-4.17,11.5-7.24-11.72,8.59-23.91,6.84-32.72.71,13.12,2.79,23.94.29,32.11-10.14-10.12,7-20.59,9.6-31.93,2.78C231.41,117.69,240.87,117,248.21,108.12Z"/><path d="M48.42,104.06c5.26-1.33,10.69-2.55,15.55-4.86,17.65-8.38,33.65-19.45,49.41-30.9,12.44-9,24.87-18.11,37.71-26.56A78.35,78.35,0,0,1,185.24,29c13.92-1.65,27.19,1.18,40.25,5.48,5.07,1.66,10,3.8,15.52,5.93-2.59-6-6.78-10-11.42-13.48-19.42-14.4-41-17.16-64-11C152.05,19.54,140,26.46,128.2,33.81,102.66,49.74,77,65.53,49.43,77.78c-2.13.94-4.23,2-7.28,3.39l12.11,15.6c-6.43-2.91-10.37-8.57-14-14.51l-.78.48,5.61,10-.38.34-6.54-8-.54.37,8.79,11.8C41,93.71,37.94,89,35.42,83.81c-.3.23-.61.45-.92.67L38.7,92l-.47.34L32.52,84.9c-2.9,1.41-3.12,1.55-1.62,3.89,2.6,4,5.35,8,8.34,11.8C41.5,103.45,44.77,105,48.42,104.06Z"/><path d="M167.56,226.67a58.43,58.43,0,0,0,.33,10.91c2,13.79,9.61,25.76,26.75,27.07,7.54.58,15.2-.31,22.81-.61A24.88,24.88,0,0,0,237,253.61a52.89,52.89,0,0,0,7.67-14c4.16-12-.41-24.09-10.74-31.45-6.25-4.45-13.25-4.55-20.4-4.15-2.58,0-5.18-.14-7.75,0-8.5.54-16.93,1.48-24.85,5C173.17,212.4,167.93,217.78,167.56,226.67Z"/><path d="M68.2,256.49c3.07,2.93,7.19,5.78,11.21,6.49A140.07,140.07,0,0,0,105,265c9.35-.09,17.8-3.23,23.39-11.45,6.18-9.1,7.77-19.3,6-29.89C133,215,126.52,210.74,118.91,208c-9.54-3.46-19.53-4-29.57-4.11-2.15,0-4.3,0-6.45,0-12.68.13-24,9.44-26.18,22C54.63,238.14,59.56,248.24,68.2,256.49Z"/><path d="M264.58,217.78c-1.49-7.26-3-14.5-4.34-21.79-.49-2.69-1.68-3-4.22-2.72-10.95,1.36-21.56,4-33.08,2.22s-23.66-.29-35.17,2.9c-5.28,1.46-10.32,3.76-15.47,5.68l.36,1.11c12.2-6.21,25.4-6.83,38.61-7,11.49-.14,23,.37,34.41-1.33,3.88-.58,7.82-.77,11.65-1.13,1.61,7.67,3.09,14.93,4.7,22.16.39,1.76-.14,2.64-1.62,3.63a22.38,22.38,0,0,0-9.63,15.08c-2.43,13.46-9.27,23.62-21.53,29.81-2.68,1.35-5.89,1.65-8.86,2.44l-.06-.44,13.46-6.77-.41-.71c-5.65,1.66-11.23,3.61-16.95,4.89s-11.84,1.95-18.52,3l2.8.48c-9.15.14-18-1.25-25.32-7-9.18-7.16-12.65-17.46-14.29-28.11H142.23c-.17-.78-.33-1.52-.68-3.09-.14,1.72-.14,2.58-.28,3.42-4,24.61-16.47,33.8-37.42,35.19a27.83,27.83,0,0,1-2.94-.18l2.93-.83c-6.36-1-12.49-1.65-18.44-3S73.77,262.24,68,260.46A42.63,42.63,0,0,0,76,265.58c2.9,1.35,6,2.23,9.53,3.49-1.77-.23-3-.44-4.31-.55-16.71-1.42-27.34-18.7-29.36-30.07-1-5.43-2.38-11-6.55-13.81-5.92-4-4.87-8.46-3.38-13.63.24-.82.36-1.68.54-2.52q1.3-6.39,2.63-12.83c5.76.57,11.11,1.12,16.45,1.64,4.6.45,9.22,1.41,13.8,1.22,18.51-.73,37-1.22,54.55,6.13-.73-.44-1.44-.92-2.19-1.33a64.88,64.88,0,0,0-26.24-7.2c-10.58-.79-21.21-2.5-31.72.78a6.42,6.42,0,0,1-2.85-.09c-6.9-1.15-13.8-2.27-20.66-3.56-2.38-.45-3.52,0-4,2.61-1.37,7.71-2.91,15.4-4.56,23.06-.44,2.07,0,2.91,2,3.9,4.93,2.54,8.39,6.12,9.32,12.17,1.41,9.25,6,17.14,12.42,23.95,4.54,4.79,9.75,8.82,16.29,9.84a189.21,189.21,0,0,0,27.55,2.75c19.49.16,31.61-10.16,35.64-29.23,1.35-6.39,1.64-6.7,8.18-7.5a24.53,24.53,0,0,1,5.14-.06c6.16.61,6.16.65,7.13,6.64,2.79,17.34,13.21,27.48,30.71,29.84,8.74,1.18,17.38.06,26-1.2,5.92-.86,11.7-2,16.63-5.63,10.19-7.43,16.64-17.4,18.81-29.75A14.71,14.71,0,0,1,262,223.32C264.8,221.92,265.09,220.3,264.58,217.78Z"/><path d="M93.65,200.53c12,1.51,23.81,3.57,35,8.35C118.28,200.66,106.47,198.49,93.65,200.53Z"/><path d="M173.86,208.86c11.2-4.74,23-6.87,35-8.33C196.06,198.48,184.22,200.65,173.86,208.86Z"/><path d="M138.19,212.86c3.66,3.17,7.91,5.24,12.81,5.08,6.54-.21,12.64-1.7,15.7-8.43C150.62,217.34,151.68,217.09,138.19,212.86Z"/><path d="M251.61,202a20.18,20.18,0,0,0-7.66,1.5c-1.14.45-1.7,2.36-2.52,3.61l4.14,2.43c2.61-1.33,5.16-2.23,7.21-3.78S254,202.07,251.61,202Z"/><path d="M60.92,207c.24-.81-.73-2.5-1.62-3a49.61,49.61,0,0,0-6.65-2.82l-3.81,2.13c.78,1.26,1.28,3.09,2.41,3.67a19.33,19.33,0,0,0,6.68,1.77A3.6,3.6,0,0,0,60.92,207Z"/></svg>