<svg id="Layer_1" data-name="Layer 1" xmlns="http://www.w3.org/2000/svg" viewBox="0 0 300 300"><defs><style>.cls-1{fill:#fff;}</style></defs><title>Untitled-2</title><path class="cls-1" d="M129.77,119.45v47.21h63.34c-3.49,14.76-6.84,29-10.25,43.38H279.5V119.45Z"/><path class="cls-1" d="M188.33,170.8H113.85c-2.72,0-5.44-.12-8.16,0-2,.12-3-.64-3.19-3.21-.41-4.55-1-9.06-1.62-13.77H88.07l.49,7c5.65,1,5.62,1,6.89,8.29,3.44,19.54,7,39.06,10.27,58.63.5,3,1.36,3.84,3.8,3.81,11.75-.15,23.51-.07,35.26-.07h33.93v-7.69h-4c-19.7,0-39.41-.07-59.11.07-3.07,0-4.1-1.27-3.59-4.95,1.34-.29,2.61-.59,3.89-.83q30.79-5.7,61.6-11.35c2-.36,3-1.39,3.48-3.76,2.18-9.7,4.53-19.34,6.79-29C188,173.08,188.11,172.09,188.33,170.8Z"/><path class="cls-1" d="M67.28,179.17c-3.9-10.58-8.82-20.6-12.9-31.09-3.54-9.07-6.54-18.46-9.74-27.73-1.82-5.25-.8-9.46,2.59-11.14,3.66-1.82,6.6.09,8.55,5.63,2,5.82,4.06,11.67,6.17,17.73,3.07-.51,4.2-2.85,4.75-5.66.88-4.56,0-7.36-3.39-9.7S57.1,112.09,57,107c-.1-4.14-2-5.44-4.9-5.94-4.4-.75-7.86,1.09-10.54,5.37-3.15,5.05-3.2,10.81-2.69,16.7,1,11.53-2.54,21.53-7,31.24-3.5,7.58-7.37,15-10.21,22.91-2.93,8.16-4.81,16.87-7.32,25.94,20.55,4,40.3,3.75,60.64,1.92C72.28,196,70.28,187.31,67.28,179.17Z"/><path class="cls-1" d="M270.87,92.26H259.29V68.63h11V52.77H244.71v16h10.94V92.51H228.24v22.35h42.63Zm-20.08,6.95c-6-.07-12,.06-17.95-.12-.85,0-1.68-1.33-2.52-2,.28-.43.55-.86.82-1.3h21.53C253.44,98.16,253,99.24,250.79,99.21Z"/><path class="cls-1" d="M176.19,48.81c8.29.07,14.74-7.65,14.81-17.73S184.65,13,176.53,12.87s-14.77,7.9-14.9,17.8S168.09,48.73,176.19,48.81Z"/><path class="cls-1" d="M55.73,97.06c7.36-.1,14.09-8.65,14.15-18,.06-9.92-6.73-18.08-15-18-7.9.05-14.45,8.15-14.41,17.82C40.5,89.07,47.3,97.18,55.73,97.06Z"/><path class="cls-1" d="M155.51,115.17c2.11.09,3.06-.66,3.45-3.35,1.19-8.2,2.11-16.53,4.11-24.45,2.66-10.52-1.38-19.58-3-29.35-12.15,16.1-13.94,36.47-16.72,57.1C147.74,115.12,151.63,115,155.51,115.17Z"/><path class="cls-1" d="M188.49,79.47c1.83,11.8,3.88,23.55,5.87,35.37h15C206.56,94.43,204.82,74,192.58,57c-1.27,6.24-2.35,11.46-3.36,16.69C188.85,75.59,188.21,77.66,188.49,79.47Z"/><path class="cls-1" d="M83.43,152.68c-5.92-3.62-12-6.75-18-10.32a8.32,8.32,0,0,1-3.17-4.05c-2.89-7.84-5.49-15.84-8.32-23.71-1.35-3.76-3.73-4.91-6.3-3.43-2.35,1.35-3,4.11-1.77,7.79C49,128,52.06,137,55.24,146c.5,1.4,1.26,3.11,2.29,3.71,7.83,4.59,15.71,9.07,23.68,13.28,2.78,1.47,5.64-1.23,5.81-6.25C86.21,155.81,85.06,153.67,83.43,152.68Z"/><path class="cls-1" d="M29.5,210c-4.47,9.36-8.9,18.75-13.12,28.27a12.92,12.92,0,0,0-.78,6.4A6.73,6.73,0,0,0,21,250.69c3.17.69,5.53-1.12,7.09-4.31,2.73-5.54,5.32-11.2,8-16.81,3.1-6.62,6.18-13.25,9.55-20.47-5-.39-9.34-.83-13.66-1A3.35,3.35,0,0,0,29.5,210Z"/><path class="cls-1" d="M72.74,214.62c-.55-2.22-1.14-4.43-1.57-6.07H57.58a11.18,11.18,0,0,0,0,2c2.87,11.79,5.7,23.58,8.69,35.32a9,9,0,0,0,2.44,4.05c2.51,2.34,5.29,2.28,7.87.06,2.87-2.48,3.38-6,2.45-9.91C77,231.55,74.85,223.09,72.74,214.62Z"/><path class="cls-1" d="M163.49,54.86c1.61,8.09,3.17,15.91,4.71,23.66h9.72c6.67,0,6.68,0,8.25-8,1-5.2,2-10.42,3-15.77A36.67,36.67,0,0,0,163.49,54.86Z"/><path class="cls-1" d="M31.91,112c3.48-3.08,4.62-7.44,4.93-12.4s.74-9.72,1.21-14.57c.27-2.75.73-5.47,1.15-8.5C32.1,78.34,28.78,84,28.67,93.41c-.05,3.43,0,6.88-.32,10.29-.39,4.74-2,8.42-7,8.88C25.13,115.37,28.58,115,31.91,112Z"/><path class="cls-1" d="M172,235.56c-3.66.07-6.61,3.81-6.51,8.23s3,7.73,6.55,7.77c3.72,0,6.62-3.49,6.6-8S175.69,235.48,172,235.56Z"/><path class="cls-1" d="M114.32,235.55c-3.76,0-6.59,3.49-6.54,8.08s2.75,7.84,6.34,7.93,6.7-3.45,6.78-7.88S118,235.55,114.32,235.55Z"/></svg>